<?xml version="1.0" encoding="UTF-8"?>
<svg version="1.1" xmlns="http://www.w3.org/2000/svg" width="512" height="512">
<path d="M0 0 C1.92167496 0.00771927 1.92167496 0.00771927 3.88217163 0.01559448 C24.10951791 0.12526148 43.25244111 1.32284035 62.8125 6.6875 C63.87017578 6.97608887 64.92785156 7.26467773 66.01757812 7.56201172 C72.37856003 9.35518176 78.60641938 11.42029111 84.8125 13.6875 C85.96202148 14.09814697 85.96202148 14.09814697 87.13476562 14.51708984 C97.46845864 18.21440468 107.4048712 22.46216144 117.25 27.3125 C118.17449951 27.76484009 118.17449951 27.76484009 119.11767578 28.22631836 C121.71010834 29.52036886 123.74894851 30.62394851 125.8125 32.6875 C127.47779825 33.35757757 129.14467067 34.02374737 130.8125 34.6875 C137.29753888 38.4629681 143.46280301 42.76999225 149.57421875 47.1171875 C151.49966666 48.4680253 153.45022002 49.7434061 155.4375 51 C156.22125 51.556875 157.005 52.11375 157.8125 52.6875 C157.8125 53.3475 157.8125 54.0075 157.8125 54.6875 C158.575625 54.955625 159.33875 55.22375 160.125 55.5 C162.80158134 56.68267548 163.8327323 57.62721097 165.8125 59.6875 C166.99318313 60.72008647 168.18131553 61.74418996 169.375 62.76171875 C174.39549164 67.13399792 179.10468658 71.7957531 183.8125 76.5 C184.66328125 77.33853516 185.5140625 78.17707031 186.390625 79.04101562 C191.92882666 84.56647602 197.35446688 90.2331584 201.8125 96.6875 C201.8125 97.3475 201.8125 98.0075 201.8125 98.6875 C202.4725 98.6875 203.1325 98.6875 203.8125 98.6875 C206.8125 102.14903846 206.8125 102.14903846 206.8125 104.6875 C207.8025 105.0175 208.7925 105.3475 209.8125 105.6875 C210.87365102 107.31591527 211.86591563 108.9899265 212.8125 110.6875 C214.54678458 113.17462175 216.31780953 115.63234718 218.09375 118.08984375 C219.9314885 120.86733489 221.3564213 123.69320482 222.8125 126.6875 C223.7612992 128.45607758 224.71034801 130.22453484 225.66674805 131.98901367 C229.33820064 138.77255141 232.76350441 145.5972933 235.8125 152.6875 C236.24433594 153.67492187 236.67617188 154.66234375 237.12109375 155.6796875 C239.43396361 161.07409613 241.46746037 166.42821714 243.0703125 172.07421875 C243.91406186 175.04510466 244.83024161 177.98928222 245.75 180.9375 C246.43930448 183.18694784 247.12676856 185.43696036 247.8125 187.6875 C248.32683594 189.36005859 248.32683594 189.36005859 248.8515625 191.06640625 C251.26700857 199.17013563 253.02042055 207.2376091 254.43429565 215.56524658 C254.70351467 217.07594045 254.99821469 218.58218806 255.31008911 220.08465576 C256.67884319 226.88171129 257.1060848 233.36284571 257.078125 240.28515625 C257.08099518 241.89577187 257.08099518 241.89577187 257.08392334 243.53892517 C257.08527578 245.79865759 257.08164563 248.05839803 257.07324219 250.31811523 C257.06260386 253.71681894 257.07313178 257.11498513 257.0859375 260.51367188 C257.09750241 276.64252488 256.56834332 292.49439243 252.5 308.1875 C252.2848877 309.05133301 252.06977539 309.91516602 251.84814453 310.80517578 C251.1857152 313.43709361 250.50302192 316.0628247 249.8125 318.6875 C249.59126465 319.53538086 249.3700293 320.38326172 249.14208984 321.25683594 C248.50108092 323.69503518 247.84823429 326.12957743 247.1875 328.5625 C246.99373779 329.28115234 246.79997559 329.99980469 246.6003418 330.74023438 C245.69440316 333.9821375 244.69051389 336.96995981 243.3515625 340.0703125 C242.14891178 342.89684694 241.27256402 345.4724344 240.45703125 348.41015625 C238.7469637 354.28705507 236.1889871 359.64064023 233.5 365.125 C233.03916016 366.08470703 232.57832031 367.04441406 232.10351562 368.03320312 C228.87584551 374.69953152 225.41305356 381.21566893 221.8125 387.6875 C221.1525 387.6875 220.4925 387.6875 219.8125 387.6875 C219.67134766 388.74517578 219.67134766 388.74517578 219.52734375 389.82421875 C218.68156963 393.21193697 217.26236007 395.56890234 215.375 398.5 C214.75753906 399.47582031 214.14007813 400.45164062 213.50390625 401.45703125 C212.94574219 402.19308594 212.38757813 402.92914063 211.8125 403.6875 C211.1525 403.6875 210.4925 403.6875 209.8125 403.6875 C209.73 404.244375 209.6475 404.80125 209.5625 405.375 C208.58548983 408.38744803 206.83875404 410.28132333 204.8125 412.6875 C204.4825 413.3475 204.1525 414.0075 203.8125 414.6875 C203.1525 414.6875 202.4925 414.6875 201.8125 414.6875 C201.55339844 415.25339844 201.29429687 415.81929688 201.02734375 416.40234375 C196.29406253 425.30578271 188.1728965 432.50787263 181.125 439.5625 C180.30523682 440.38306885 179.48547363 441.2036377 178.64086914 442.04907227 C174.50848733 446.14366174 170.33237037 450.02723688 165.8125 453.6875 C165.131875 454.38875 164.45125 455.09 163.75 455.8125 C161.8125 457.6875 161.8125 457.6875 159.50390625 459.0546875 C156.72475871 460.74073057 154.31834624 462.62017685 151.8125 464.6875 C148.59752178 467.33985703 145.41433635 469.59431535 141.8125 471.6875 C139.99735095 472.85004088 138.18491704 474.01683025 136.375 475.1875 C132.60357726 477.59898612 128.83637436 479.72235206 124.8125 481.6875 C123.905 482.30625 122.9975 482.925 122.0625 483.5625 C111.57098308 490.42233799 99.67821328 494.44378163 87.9140625 498.5390625 C84.94021139 499.57054165 84.94021139 499.57054165 82.74609375 500.74609375 C80.30274328 501.93568458 77.89396006 502.50185628 75.25 503.125 C71.4377837 504.0302074 67.66346902 505.01046825 63.89404297 506.07714844 C42.9655094 511.77754107 22.24273736 513.57365129 0.625 513.375 C-0.65611664 513.36985382 -1.93723328 513.36470764 -3.25717163 513.35940552 C-23.48451791 513.24973852 -42.62744111 512.05215965 -62.1875 506.6875 C-63.77401367 506.2546167 -63.77401367 506.2546167 -65.39257812 505.81298828 C-71.7537629 504.01976105 -77.98059761 501.95280217 -84.1875 499.6875 C-84.98575195 499.40310059 -85.78400391 499.11870117 -86.60644531 498.82568359 C-99.23604651 494.32180233 -99.23604651 494.32180233 -103.1875 491.6875 C-104.610625 491.2234375 -104.610625 491.2234375 -106.0625 490.75 C-109.12833411 489.7076164 -111.43423169 488.36632214 -114.1875 486.6875 C-115.9509375 485.945 -115.9509375 485.945 -117.75 485.1875 C-120.70017054 483.90015285 -122.67466153 482.6140095 -125.1875 480.6875 C-125.94160156 480.38972656 -126.69570312 480.09195312 -127.47265625 479.78515625 C-130.3223064 478.63299554 -132.85693266 477.25376212 -135.5 475.6875 C-136.82451172 474.9140625 -136.82451172 474.9140625 -138.17578125 474.125 C-139.17158203 473.4134375 -139.17158203 473.4134375 -140.1875 472.6875 C-140.1875 472.0275 -140.1875 471.3675 -140.1875 470.6875 C-141.2703125 470.31625 -141.2703125 470.31625 -142.375 469.9375 C-145.45644735 468.56796785 -147.5935245 466.82752978 -150.1875 464.6875 C-151.05375 464.171875 -151.92 463.65625 -152.8125 463.125 C-154.98610439 461.80939734 -156.41129682 460.46370318 -158.1875 458.6875 C-159.1775 458.3575 -160.1675 458.0275 -161.1875 457.6875 C-162.88857887 456.0559712 -164.5494394 454.38228997 -166.1875 452.6875 C-168.2693505 450.72566447 -170.38760477 448.80385772 -172.5 446.875 C-184.56338405 435.77935867 -184.56338405 435.77935867 -187.1875 432.6875 C-187.1875 432.0275 -187.1875 431.3675 -187.1875 430.6875 C-187.78369141 430.43009033 -188.37988281 430.17268066 -188.99414062 429.9074707 C-191.38724908 428.57639736 -192.58756847 427.30287294 -194.28125 425.16796875 C-195.11462891 424.12866211 -195.11462891 424.12866211 -195.96484375 423.06835938 C-196.53332031 422.34455078 -197.10179687 421.62074219 -197.6875 420.875 C-198.25597656 420.16279297 -198.82445312 419.45058594 -199.41015625 418.71679688 C-200.51337112 417.33329888 -201.61249097 415.94652327 -202.70703125 414.55615234 C-203.96013678 412.97447858 -205.24258632 411.41612099 -206.53125 409.86328125 C-208.1875 407.6875 -208.1875 407.6875 -209.1875 404.6875 C-209.785625 404.11 -210.38375 403.5325 -211 402.9375 C-213.15648023 400.71940605 -214.51921653 398.51055373 -215.98828125 395.8046875 C-217.45411721 393.2167947 -219.0673913 390.74406926 -220.6875 388.25 C-223.51009774 383.8307209 -225.98157426 379.43811865 -228.1875 374.6875 C-228.7340625 373.52863281 -229.280625 372.36976563 -229.84375 371.17578125 C-231.08103444 368.54725689 -232.30839256 365.91441902 -233.52734375 363.27734375 C-234.4481509 361.2862337 -235.37337925 359.29708925 -236.31640625 357.31640625 C-244.10534424 340.59789082 -249.13494048 322.3002881 -252.51171875 304.21484375 C-253.15385348 300.62511367 -253.15385348 300.62511367 -254.20874023 296.91210938 C-255.6973128 290.20128547 -255.5163071 283.40737371 -255.5234375 276.56640625 C-255.52988437 275.09781268 -255.53661404 273.62922033 -255.54360962 272.16062927 C-255.5555345 269.08858271 -255.55929589 266.01664812 -255.55810547 262.94458008 C-255.55794359 259.8307353 -255.57172932 256.71748298 -255.59912109 253.60375977 C-255.74168806 237.17854293 -255.82185528 221.59546646 -251.1875 205.6875 C-250.80449925 203.67193263 -250.44391163 201.65169602 -250.125 199.625 C-249.43575781 195.6298351 -248.39349802 191.94260341 -246.96875 188.1484375 C-246.25711402 185.90678417 -245.76208093 183.73000229 -245.28515625 181.4296875 C-244.30272821 176.90346805 -242.85148471 172.72783668 -241.125 168.4375 C-240.82408447 167.67880615 -240.52316895 166.9201123 -240.21313477 166.13842773 C-232.59921585 147.10266544 -224.37855489 129.38674604 -212.9375 112.3125 C-211.7799117 110.57611754 -210.67390456 108.80411584 -209.625 107 C-208.30213942 104.87191993 -207.11458656 103.27944107 -205.1875 101.6875 C-204.5275 101.6875 -203.8675 101.6875 -203.1875 101.6875 C-202.98125 101.01332031 -202.775 100.33914062 -202.5625 99.64453125 C-200.70552095 95.65097119 -198.06940382 92.67491581 -195.1875 89.375 C-194.6409375 88.72982422 -194.094375 88.08464844 -193.53125 87.41992188 C-192.1318303 85.79927038 -190.66442323 84.23784981 -189.1875 82.6875 C-188.5275 82.6875 -187.8675 82.6875 -187.1875 82.6875 C-186.78349976 81.79671753 -186.78349976 81.79671753 -186.37133789 80.88793945 C-185.1886867 78.68970576 -183.99945318 77.24145266 -182.24609375 75.48046875 C-181.66641846 74.89692627 -181.08674316 74.31338379 -180.48950195 73.7121582 C-179.87421631 73.105896 -179.25893066 72.49963379 -178.625 71.875 C-177.99746826 71.25133545 -177.36993652 70.6276709 -176.72338867 69.98510742 C-172.68250283 66.0188704 -168.54873303 62.34697862 -163.95703125 59.01953125 C-162.19437361 57.69267417 -160.72261015 56.26812555 -159.1875 54.6875 C-153.7790493 49.6875 -153.7790493 49.6875 -150.1875 49.6875 C-150.1875 49.0275 -150.1875 48.3675 -150.1875 47.6875 C-148.5078125 46.3984375 -148.5078125 46.3984375 -146.3125 45.0625 C-145.59320313 44.61648437 -144.87390625 44.17046875 -144.1328125 43.7109375 C-142.1875 42.6875 -142.1875 42.6875 -140.1875 42.6875 C-140.1875 42.0275 -140.1875 41.3675 -140.1875 40.6875 C-138.2109375 39.28515625 -138.2109375 39.28515625 -135.5625 37.75 C-134.64726562 37.21761719 -133.73203125 36.68523438 -132.7890625 36.13671875 C-129.96388364 34.56293293 -127.07962345 33.13356173 -124.1875 31.6875 C-123.218125 31.0275 -122.24875 30.3675 -121.25 29.6875 C-117.9564301 27.53659721 -114.81264026 26.1922752 -111.1875 24.6875 C-110.1975 24.0275 -109.2075 23.3675 -108.1875 22.6875 C-106.1875 22.02083333 -104.1875 21.35416667 -102.1875 20.6875 C-100.82742272 20.09675936 -99.47372966 19.4912086 -98.125 18.875 C-89.43643885 14.96806311 -80.73057587 11.5860663 -71.4296875 9.4609375 C-68.68857775 8.80703421 -65.99920448 8.07201182 -63.28881836 7.30444336 C-42.35418825 1.59867395 -21.62495912 -0.19871765 0 0 Z " fill="#000000" transform="translate(255.1875,-0.6875)"/>
<path d="M0 0 C0.99 0.33 1.98 0.66 3 1 C3 1.66 3 2.32 3 3 C3.99 3.33 4.98 3.66 6 4 C7.06115102 5.62841527 8.05341563 7.3024265 9 9 C10.73428458 11.48712175 12.50530953 13.94484718 14.28125 16.40234375 C16.1189885 19.17983489 17.5439213 22.00570482 19 25 C19.9487992 26.76857758 20.89784801 28.53703484 21.85424805 30.30151367 C25.52570064 37.08505141 28.95100441 43.9097933 32 51 C32.43183594 51.98742187 32.86367188 52.97484375 33.30859375 53.9921875 C35.62146361 59.38659613 37.65496037 64.74071714 39.2578125 70.38671875 C40.10156186 73.35760466 41.01774161 76.30178222 41.9375 79.25 C42.62680448 81.49944784 43.31426856 83.74946036 44 86 C44.51433594 87.67255859 44.51433594 87.67255859 45.0390625 89.37890625 C47.45450857 97.48263563 49.20792055 105.5501091 50.62179565 113.87774658 C50.89101467 115.38844045 51.18571469 116.89468806 51.49758911 118.39715576 C52.86634319 125.19421129 53.2935848 131.67534571 53.265625 138.59765625 C53.26753845 139.67139999 53.2694519 140.74514374 53.27142334 141.85142517 C53.27277578 144.11115759 53.26914563 146.37089803 53.26074219 148.63061523 C53.25010386 152.02931894 53.26063178 155.42748513 53.2734375 158.82617188 C53.28500241 174.95502488 52.75584332 190.80689243 48.6875 206.5 C48.4723877 207.36383301 48.25727539 208.22766602 48.03564453 209.11767578 C47.3732152 211.74959361 46.69052192 214.3753247 46 217 C45.77876465 217.84788086 45.5575293 218.69576172 45.32958984 219.56933594 C44.68858092 222.00753518 44.03573429 224.44207743 43.375 226.875 C43.08435669 227.95297852 43.08435669 227.95297852 42.7878418 229.05273438 C41.88190316 232.2946375 40.87801389 235.28245981 39.5390625 238.3828125 C38.33641178 241.20934694 37.46006402 243.7849344 36.64453125 246.72265625 C34.9344637 252.59955507 32.3764871 257.95314023 29.6875 263.4375 C29.22666016 264.39720703 28.76582031 265.35691406 28.29101562 266.34570312 C25.06334551 273.01203152 21.60055356 279.52816893 18 286 C17.34 286 16.68 286 16 286 C15.90589844 286.70511719 15.81179688 287.41023438 15.71484375 288.13671875 C14.86906963 291.52443697 13.44986007 293.88140234 11.5625 296.8125 C10.63630859 298.27623047 10.63630859 298.27623047 9.69140625 299.76953125 C9.13324219 300.50558594 8.57507813 301.24164063 8 302 C7.34 302 6.68 302 6 302 C5.9175 302.556875 5.835 303.11375 5.75 303.6875 C4.76104459 306.73677919 3.15242534 308.65189963 1 311 C0.34 311 -0.32 311 -1 311 C-1.05945801 310.06317383 -1.05945801 310.06317383 -1.12011719 309.10742188 C-1.31241357 306.23678749 -1.53101398 303.36871692 -1.75 300.5 C-1.811875 299.51773437 -1.87375 298.53546875 -1.9375 297.5234375 C-2.38582681 291.9193524 -3.22810685 287.56719353 -6.046875 282.66918945 C-7 281 -7 281 -8.25 277.6875 C-10.54313097 272.22885127 -14.39739397 267.64440441 -18 263 C-18.5465625 262.28457031 -19.093125 261.56914062 -19.65625 260.83203125 C-31.6101859 246.15330114 -49.59182287 237.92888618 -67.1875 232.25 C-67.8283252 232.03915771 -68.46915039 231.82831543 -69.12939453 231.61108398 C-79.01975074 228.53343933 -89.31671093 228.74521417 -99.5859375 228.5703125 C-106.801279 228.35809657 -113.13319554 227.20234448 -120 225 C-121.0209375 224.69578125 -122.041875 224.3915625 -123.09375 224.078125 C-142.09388835 217.53911635 -156.94177805 202.68051124 -166 185 C-171.19897389 173.50473927 -174.37908866 162.360219 -174.1875 149.6875 C-174.1774292 148.76179199 -174.1673584 147.83608398 -174.15698242 146.88232422 C-174.11942663 144.25434056 -174.06259713 141.62748802 -174 139 C-173.98195313 137.84371094 -173.96390625 136.68742188 -173.9453125 135.49609375 C-173.18807023 119.12629763 -165.31011841 104.35878125 -155 92 C-154.23042969 91.02675781 -153.46085937 90.05351562 -152.66796875 89.05078125 C-150.06951385 85.9431134 -147.10483127 83.42978132 -143.875 81 C-143.30515381 80.56993652 -142.73530762 80.13987305 -142.14819336 79.69677734 C-123.32034354 65.75740587 -105.91944015 65.50493123 -83.25 65.9375 C-49.86429207 67.81451862 -49.86429207 67.81451862 -20.3359375 54.57421875 C-6.53586678 39.36644851 -2.63511875 19.70983133 0 0 Z " fill="#F41212" transform="translate(459,101)"/>
<path d="M0 0 C0.09498779 0.58789307 0.18997559 1.17578613 0.2878418 1.78149414 C5.12174196 31.79727672 5.12174196 31.79727672 21.83984375 56.54296875 C34.45649265 65.05293266 48.45101673 66.35349153 63.26171875 66.01953125 C65.78840117 65.98936021 68.3150945 65.96009171 70.84179688 65.93164062 C74.76033945 65.87609837 78.6783129 65.81268763 82.59643555 65.73266602 C107.61432975 65.25230985 126.43175026 68.15364966 146 85 C146.99773437 85.85464844 146.99773437 85.85464844 148.015625 86.7265625 C162.44379647 100.0754613 171.39892512 120.53669404 172.28125 139.98828125 C172.88816314 162.8291434 167.73852419 183.12098859 153 201 C152.53335938 201.62777344 152.06671875 202.25554687 151.5859375 202.90234375 C141.42290332 216.00730888 123.20137521 225.22876838 107 228 C104.70519598 228.15446462 102.40764783 228.27034226 100.109375 228.359375 C78.61014029 229.23190788 78.61014029 229.23190788 58 235 C56.26169922 235.69996094 56.26169922 235.69996094 54.48828125 236.4140625 C31.78513614 246.27582356 13.35497474 263.15314661 4 286.38671875 C1.87588313 294.06175041 1.5242996 302.08072838 1 310 C-2.83730348 308.28579476 -3.91509757 306.64857925 -6 303 C-6.639375 302.38125 -7.27875 301.7625 -7.9375 301.125 C-10.03726331 298.9616075 -11.36842655 296.75543766 -12.80078125 294.1171875 C-14.26661721 291.5292947 -15.8798913 289.05656926 -17.5 286.5625 C-20.32259774 282.1432209 -22.79407426 277.75061865 -25 273 C-25.5465625 271.84113281 -26.093125 270.68226563 -26.65625 269.48828125 C-27.89353444 266.85975689 -29.12089256 264.22691902 -30.33984375 261.58984375 C-31.2606509 259.5987337 -32.18587925 257.60958925 -33.12890625 255.62890625 C-40.91784424 238.91039082 -45.94744048 220.6127881 -49.32421875 202.52734375 C-49.96635348 198.93761367 -49.96635348 198.93761367 -51.02124023 195.22460938 C-52.5098128 188.51378547 -52.3288071 181.71987371 -52.3359375 174.87890625 C-52.34238437 173.41031268 -52.34911404 171.94172033 -52.35610962 170.47312927 C-52.3680345 167.40108271 -52.37179589 164.32914812 -52.37060547 161.25708008 C-52.37044359 158.1432353 -52.38422932 155.02998298 -52.41162109 151.91625977 C-52.55418806 135.49104293 -52.63435528 119.90796646 -48 104 C-47.61699925 101.98443263 -47.25641163 99.96419602 -46.9375 97.9375 C-46.24825781 93.9423351 -45.20599802 90.25510341 -43.78125 86.4609375 C-43.06961402 84.21928417 -42.57458093 82.04250229 -42.09765625 79.7421875 C-41.11522821 75.21596805 -39.66398471 71.04033668 -37.9375 66.75 C-37.63658447 65.99130615 -37.33566895 65.2326123 -37.02563477 64.45092773 C-29.41171585 45.41516544 -21.19105489 27.69924604 -9.75 10.625 C-8.5924117 8.88861754 -7.48640456 7.11661584 -6.4375 5.3125 C-3.13513514 0 -3.13513514 0 0 0 Z " fill="#F41212" transform="translate(52,101)"/>
<path d="M0 0 C10.2275976 8.78803395 16.25475742 18.02679144 21.6875 30.1875 C22.10817749 31.11731689 22.10817749 31.11731689 22.53735352 32.06591797 C29.7022203 48.25280594 28.15346309 68.9041226 22.62109375 85.359375 C21.43524057 88.3807567 20.11994891 91.27537859 18.6875 94.1875 C18.21828125 95.16203125 17.7490625 96.1365625 17.265625 97.140625 C9.26603251 112.26856723 -4.02663542 123.35108022 -20.125 129.0625 C-21.51786663 129.44837335 -22.91408453 129.82224683 -24.3125 130.1875 C-24.98837158 130.36450439 -25.66424316 130.54150879 -26.3605957 130.72387695 C-31.85716528 132.05276647 -37.03995613 132.5404345 -42.6875 132.5 C-43.51967041 132.49436035 -44.35184082 132.4887207 -45.20922852 132.48291016 C-60.16293843 132.18858594 -73.14897268 126.02929822 -84.3125 116.1875 C-85.05113281 115.54296875 -85.78976562 114.8984375 -86.55078125 114.234375 C-102.30118848 99.54487603 -108.89515481 79.91310786 -109.71972656 58.74829102 C-109.99619326 39.35771977 -102.69575101 20.31015714 -89.3125 6.1875 C-82.98172608 -0.29123859 -76.46244645 -4.89333458 -68.3125 -8.8125 C-67.5390625 -9.20308594 -66.765625 -9.59367188 -65.96875 -9.99609375 C-44.27499906 -20.42284376 -18.47981792 -14.09477638 0 0 Z " fill="#FDFBFB" transform="translate(401.3125,188.8125)"/>
<path d="M0 0 C3.66125887 2.99994599 6.96638979 6.27642 10.24755859 9.68359375 C10.91142578 10.328125 11.57529297 10.97265625 12.25927734 11.63671875 C27.72082751 27.61944477 29.82049113 49.12339437 29.52099609 70.26171875 C28.8581373 89.22866826 18.49473344 106.03462335 5.06005859 118.87109375 C-10.7341712 132.17868875 -28.42302134 136.33535913 -48.75244141 134.68359375 C-64.7258263 132.76156262 -78.82492108 123.08889226 -88.99462891 111.0234375 C-101.64962358 94.42868033 -106.12329728 77.36408866 -105.78955078 56.96582031 C-105.75901804 55.08805658 -105.74557161 53.2100228 -105.73681641 51.33203125 C-105.04881481 33.49313279 -94.87614592 18.06253415 -82.75244141 5.68359375 C-82.16205078 5.05710938 -81.57166016 4.430625 -80.96337891 3.78515625 C-59.63833991 -16.97622533 -23.33778266 -17.53097299 0 0 Z " fill="#FDFBFB" transform="translate(186.75244140625,186.31640625)"/>
<path d="M0 0 C7.49555962 5.17034749 13.78515466 11.98683751 16.77734375 20.6484375 C17.33421875 21.8034375 17.89109375 22.9584375 18.46484375 24.1484375 C21.77187629 33.2251864 20.55412627 43.94192549 17.16796875 52.80078125 C11.08069316 65.26601693 2.00223654 74.00587406 -11.08984375 78.53515625 C-22.08075294 81.81669024 -32.80721109 80.57053289 -43.0625 75.54296875 C-51.78021829 70.31664814 -57.80423433 63.77524027 -62.22265625 54.6484375 C-62.63515625 53.80667969 -63.04765625 52.96492188 -63.47265625 52.09765625 C-67.83147278 41.88168 -67.75249532 31.14028947 -63.78515625 20.8359375 C-58.99639722 9.48605173 -49.86509928 0.73195583 -38.91015625 -4.7265625 C-25.87085533 -9.50293703 -11.56084195 -7.02996716 0 0 Z " fill="#020202" transform="translate(383.22265625,211.3515625)"/>
<path d="M0 0 C10.70279968 6.52918208 19.43900753 15.1095947 22.83203125 27.48828125 C25.57977556 41.36791276 23.67930333 53.10394008 15.84765625 64.875 C15.450625 65.44863281 15.05359375 66.02226562 14.64453125 66.61328125 C14.06703125 67.47953125 13.48953125 68.34578125 12.89453125 69.23828125 C5.31707013 77.23671243 -5.59847573 82.64790198 -16.6015625 83.20727539 C-28.18490574 83.37116628 -38.40868685 80.20864958 -47.359375 72.62109375 C-56.91103833 63.01335412 -61.15186501 51.72569142 -61.60546875 38.36328125 C-61.45263806 27.19135781 -57.69603948 17.30273348 -50.0234375 9.12890625 C-45.2443715 4.63614375 -40.51163922 0.95214129 -34.35546875 -1.38671875 C-33.47632813 -1.73992187 -32.5971875 -2.093125 -31.69140625 -2.45703125 C-21.60215555 -5.26878964 -9.36991896 -4.65219753 0 0 Z " fill="#020202" transform="translate(167.35546875,208.38671875)"/>
<path d="M0 0 C0.66 0.33 1.32 0.66 2 1 C-2.29 5.29 -6.58 9.58 -11 14 C-11.66 13.67 -12.32 13.34 -13 13 C-8.96476648 8.18876004 -4.95532767 3.86757281 0 0 Z " fill="#D50F0F" transform="translate(315,182)"/>
<path d="M0 0 C0.33 0 0.66 0 1 0 C1.19294408 4.82360189 0.75747614 8.49646738 -1 13 C-1.33 13 -1.66 13 -2 13 C-2.19294408 8.17639811 -1.75747614 4.50353262 0 0 Z " fill="#4A0505" transform="translate(7,191)"/>
<path d="M0 0 C2.91227269 3.28804981 4.49701212 5.59885603 5 10 C1.32769295 6.92000054 0.43197635 4.7517398 0 0 Z " fill="#3E0404" transform="translate(25,367)"/>
</svg>
